<svg width="273" height="164" viewBox="0 0 273 164" fill="none" xmlns="http://www.w3.org/2000/svg">
<g filter="url(#filter0_d_31_42)">
<path d="M52.6452 78.151C57.5646 75.9241 61.9311 74.4962 65.7446 73.8676C69.558 73.239 73.058 73.7768 76.2444 75.481C79.4641 77.097 82.1599 80.304 84.3319 85.102C85.2942 87.2276 85.9499 89.5652 86.2991 92.1148C86.6816 94.5761 86.7581 96.8467 86.5287 98.9264C86.36 100.979 86.0212 102.413 85.5124 103.228C84.937 104.221 83.2743 105.559 80.524 107.243C77.7463 108.866 74.3836 110.571 70.4359 112.359C69.039 112.991 66.8555 113.906 63.8853 115.104L71.721 132.413L55.323 139.837L31.8159 87.9096C38.1105 84.8406 45.0536 81.5877 52.6452 78.151ZM70.0765 98.4707C70.3265 97.4063 69.9153 95.6897 68.843 93.3211C67.4409 90.2237 65.783 88.3397 63.8695 87.6692C62.0168 86.9712 59.4809 87.3507 56.2621 88.8079C55.1689 89.3028 54.0258 89.93 52.8329 90.6896L59.1014 104.537C59.7363 104.323 60.9343 103.817 62.6956 103.02C67.372 100.902 69.8324 99.3862 70.0765 98.4707Z" fill="#E6931F"/>
<path d="M81.8036 65.2806L119.61 48.1658L124.559 59.0978L103.15 68.7893L107.439 78.2637L125.477 70.0981L129.931 79.9369L111.893 88.1025L116.677 98.6701L137.995 89.0199L143.026 100.134L105.311 117.208L81.8036 65.2806Z" fill="#E6931F"/>
<path d="M177.31 84.6142L160.912 92.0374L142.56 51.4979L127.892 58.1376L122.737 46.7501L168.47 26.0474L173.625 37.4349L158.958 44.0746L177.31 84.6142Z" fill="#E6931F"/>
<path d="M195.006 30.9388C195.584 32.2142 196.675 32.9276 198.28 33.0791C199.947 33.203 202.369 33.0578 205.548 32.6433C209.383 32.2244 212.597 32.05 215.19 32.1202C217.844 32.1629 220.455 32.92 223.024 34.3916C225.653 35.8357 227.766 38.319 229.36 41.8415C234.474 53.1379 229.682 62.1129 214.985 68.7663C212.555 69.8661 209.483 71.0007 205.768 72.1702C202.114 73.3122 198.708 74.1952 195.551 74.8194C195.096 73.489 194.5 71.5266 193.765 68.9323C193.063 66.2498 192.619 64.2187 192.433 62.8391C194.696 62.1805 198.05 61.1015 202.494 59.6021C206.998 58.0752 210.344 56.8168 212.53 55.827C213.805 55.2497 214.523 54.8149 214.684 54.5227C214.938 54.1148 215.033 53.5964 214.968 52.9673C214.936 52.25 214.823 51.6787 214.631 51.2536C214.081 50.0389 213.092 49.3891 211.663 49.3042C210.206 49.1585 207.875 49.2625 204.669 49.6162C200.861 50.0959 197.617 50.284 194.936 50.1806C192.254 50.0771 189.571 49.2427 186.887 47.6771C184.202 46.1116 182.008 43.4461 180.303 39.6806C179.093 37.0083 178.518 34.1219 178.578 31.0212C178.611 27.8598 179.058 25.5349 179.921 24.0465C180.591 22.9386 182.306 21.3936 185.068 19.4115C187.83 17.4295 190.547 15.8337 193.219 14.6239C200.021 11.5447 205.867 9.6667 210.756 8.99005C211.246 10.2322 211.789 11.9986 212.387 14.2892C213.046 16.5524 213.591 18.6471 214.024 20.5733L211.888 21.4307C203.745 24.4583 198.58 26.467 196.394 27.4567C195.483 27.8691 194.98 28.1332 194.886 28.2489C194.698 28.4804 194.61 28.8499 194.62 29.3575C194.63 29.8651 194.759 30.3922 195.006 30.9388Z" fill="#E6931F"/>
<path d="M16.9226 58.8428L25.7775 54.8342L38.4201 66.1033L37.2835 49.6255L39.3879 48.6729L40.8333 71.0701L34.0554 74.1384L16.9226 58.8428Z" fill="#F2B763"/>
<path d="M40.4202 48.2055L49.3298 44.1722L57.9903 63.3032L49.0807 67.3365L40.4202 48.2055Z" fill="#F2B763"/>
<path d="M57.4507 40.4959L65.4311 36.8833L82.5639 52.1789L72.2331 56.8556L66.4931 51.8141L60.4805 54.536L60.8911 61.99L58.8961 62.8932L57.4507 40.4959ZM64.9732 50.4934L59.9746 46.0713L60.3271 52.5967L64.9732 50.4934Z" fill="#F2B763"/>
<path d="M127.683 127.325C130.115 126.926 132.087 126.967 133.599 127.446C135.103 127.907 136.201 128.902 136.894 130.433C137.447 131.653 137.559 132.92 137.231 134.232C136.903 135.544 136.115 136.812 134.869 138.034C133.641 139.249 131.97 140.335 129.856 141.292C127.36 142.422 125.011 143.101 122.809 143.329C120.617 143.531 118.774 143.411 117.278 142.968L117.623 141.33C118.909 141.648 120.391 141.746 122.069 141.622C123.748 141.499 125.416 141.062 127.074 140.312C128.149 139.825 128.89 139.303 129.296 138.746C129.721 138.18 129.805 137.615 129.55 137.051C129.104 136.067 127.783 135.743 125.586 136.079L121.563 136.648C119.368 136.94 117.507 136.805 115.98 136.245C114.471 135.677 113.395 134.682 112.752 133.261C112.216 132.076 112.103 130.832 112.412 129.529C112.722 128.225 113.464 126.978 114.638 125.788C115.822 124.571 117.415 123.51 119.42 122.602C121.333 121.736 123.19 121.159 124.991 120.87C126.811 120.574 128.371 120.504 129.672 120.662L129.339 122.327C128.26 122.223 127.041 122.27 125.682 122.468C124.341 122.658 123.014 123.05 121.702 123.644C120.554 124.163 119.753 124.746 119.299 125.39C118.854 126.009 118.772 126.628 119.053 127.247C119.267 127.721 119.684 128.037 120.305 128.195C120.917 128.335 121.939 128.289 123.371 128.058L127.683 127.325Z" fill="#F2B763"/>
<path d="M136.94 122.574L142.706 135.31L141.093 136.04L132.433 116.909L140.413 113.296L148.016 119.47L147.574 110.055L156.319 106.096L164.98 125.227L156.234 129.186L149.739 114.838L150.659 131.71L148.281 132.786L136.94 122.574Z" fill="#F2B763"/>
<path d="M164.436 102.421L172.416 98.8087L189.549 114.104L179.218 118.781L173.478 113.74L167.466 116.461L167.876 123.915L165.881 124.819L164.436 102.421ZM171.958 112.419L166.96 107.997L167.312 114.522L171.958 112.419ZM167.981 99.6311C166.796 100.167 165.747 100.445 164.834 100.463C163.938 100.473 163.288 100.032 162.884 99.1391C162.175 97.5722 163.169 96.1784 165.865 94.9577C168.543 93.7452 170.237 93.9225 170.947 95.4894C171.351 96.3822 171.244 97.1657 170.628 97.8401C170.029 98.5062 169.147 99.1032 167.981 99.6311ZM167.424 98.4013C167.697 98.2776 167.825 98.099 167.807 97.8656C167.808 97.6239 167.734 97.3391 167.585 97.0111C167.428 96.665 167.259 96.4123 167.077 96.2531C166.914 96.0857 166.695 96.0638 166.422 96.1875C166.13 96.3195 165.984 96.5063 165.984 96.748C166.002 96.9814 166.089 97.2712 166.246 97.6174C166.394 97.9453 166.55 98.193 166.714 98.3605C166.896 98.5196 167.133 98.5332 167.424 98.4013Z" fill="#F2B763"/>
<path d="M181.968 94.4845L196.344 87.9768C198.949 86.7973 201.62 86.7079 204.356 87.7085C207.083 88.7356 209.04 90.561 210.227 93.1847C211.432 95.8448 211.52 98.538 210.493 101.264C209.458 103.972 207.628 105.92 205.004 107.108L190.629 113.616L181.968 94.4845ZM201.117 106.958C202.155 106.488 202.75 105.812 202.9 104.932C203.04 104.078 202.893 103.025 202.458 101.773C202.194 100.949 201.605 99.525 200.689 97.5026C199.98 95.9357 199.249 94.4664 198.496 93.0947C197.9 92.0692 197.256 91.373 196.563 91.0062C195.802 90.5382 194.912 90.5352 193.891 90.9971L192.251 91.7394L199.477 107.7L201.117 106.958Z" fill="#F2B763"/>
<path d="M214.469 92.2525L203.849 84.5792L214.563 79.7293L222.037 85.7641L222.324 76.2156L224.429 75.263L224.034 87.9223L228.006 96.6952L218.44 101.025L214.469 92.2525Z" fill="#F2B763"/>
<path d="M225.606 74.7302L243.889 66.4532C244.782 66.0491 245.705 65.9057 246.658 66.023C247.622 66.1139 248.495 66.4429 249.279 67.0102C250.073 67.551 250.671 68.2678 251.076 69.1606C251.612 70.3449 251.734 71.5849 251.442 72.8804C251.151 74.176 250.511 75.212 249.523 75.9885C250.631 75.8164 251.668 75.9727 252.634 76.4575C253.618 76.9341 254.328 77.6552 254.765 78.6209L257.005 83.5676L247.849 87.7123L245.164 81.7816C244.901 81.1986 244.585 80.7926 244.218 80.5636C243.79 80.2965 243.37 80.146 242.96 80.1123C242.505 80.0768 242.029 80.1167 241.532 80.2318C241.017 80.3551 240.546 80.5025 240.119 80.674L239.368 80.9807L243.34 89.7537L234.266 93.8612L225.606 74.7302ZM239.607 78.9626C240.263 78.6656 240.794 78.2386 241.201 77.6814C241.617 77.0977 241.856 76.4625 241.919 75.7757C241.991 75.0624 241.883 74.3869 241.594 73.7492C241.297 73.0933 240.861 72.5663 240.286 72.1681C239.72 71.7435 239.081 71.4951 238.368 71.4228C237.672 71.3423 236.997 71.4505 236.341 71.7474L235.384 72.1805L238.663 79.4229L239.607 78.9626Z" fill="#F2B763"/>
</g>
<defs>
<filter id="filter0_d_31_42" x="0.922607" y="-3.00995" width="272.082" height="166.434" filterUnits="userSpaceOnUse" color-interpolation-filters="sRGB">
<feFlood flood-opacity="0" result="BackgroundImageFix"/>
<feColorMatrix in="SourceAlpha" type="matrix" values="0 0 0 0 0 0 0 0 0 0 0 0 0 0 0 0 0 0 127 0" result="hardAlpha"/>
<feOffset dy="4"/>
<feGaussianBlur stdDeviation="8"/>
<feComposite in2="hardAlpha" operator="out"/>
<feColorMatrix type="matrix" values="0 0 0 0 0 0 0 0 0 0 0 0 0 0 0 0 0 0 0.15 0"/>
<feBlend mode="normal" in2="BackgroundImageFix" result="effect1_dropShadow_31_42"/>
<feBlend mode="normal" in="SourceGraphic" in2="effect1_dropShadow_31_42" result="shape"/>
</filter>
</defs>
</svg>
