<svg width="249" height="143" viewBox="0 0 249 143" fill="none" xmlns="http://www.w3.org/2000/svg">
<g filter="url(#filter0_d_31_38)">
<path d="M40.6452 69.151C45.5646 66.9241 49.9311 65.4962 53.7446 64.8676C57.558 64.239 61.058 64.7768 64.2444 66.481C67.4641 68.097 70.1599 71.304 72.3319 76.102C73.2942 78.2276 73.9499 80.5652 74.2991 83.1148C74.6816 85.5761 74.7581 87.8467 74.5287 89.9264C74.36 91.9786 74.0212 93.4126 73.5124 94.2284C72.937 95.2206 71.2743 96.5588 68.524 98.2429C65.7463 99.8662 62.3836 101.571 58.4359 103.359C57.039 103.991 54.8555 104.906 51.8853 106.104L59.721 123.413L43.323 130.837L19.8159 78.9096C26.1105 75.8406 33.0536 72.5877 40.6452 69.151ZM58.0765 89.4707C58.3265 88.4063 57.9153 86.6897 56.843 84.3211C55.4409 81.2237 53.783 79.3397 51.8695 78.6692C50.0168 77.9712 47.4809 78.3507 44.2621 79.8079C43.1689 80.3028 42.0258 80.93 40.8329 81.6896L47.1014 95.5368C47.7363 95.3226 48.9343 94.8168 50.6956 94.0195C55.372 91.9025 57.8324 90.3862 58.0765 89.4707Z" fill="white"/>
<path d="M69.8036 56.2806L107.61 39.1658L112.559 50.0978L91.1504 59.7893L95.4394 69.2637L113.477 61.0981L117.931 70.9369L99.8934 79.1025L104.677 89.6701L125.995 80.0199L131.026 91.1341L93.3106 108.208L69.8036 56.2806Z" fill="white"/>
<path d="M165.31 75.6142L148.912 83.0374L130.56 42.4979L115.892 49.1376L110.737 37.7501L156.47 17.0474L161.625 28.4349L146.958 35.0746L165.31 75.6142Z" fill="white"/>
<path d="M183.006 21.9388C183.584 23.2142 184.675 23.9276 186.28 24.0791C187.947 24.203 190.369 24.0578 193.548 23.6433C197.383 23.2244 200.597 23.05 203.19 23.1202C205.844 23.1629 208.455 23.92 211.024 25.3916C213.653 26.8357 215.766 29.319 217.36 32.8415C222.474 44.1379 217.682 53.1129 202.985 59.7663C200.555 60.8661 197.483 62.0007 193.768 63.1702C190.114 64.3122 186.708 65.1952 183.551 65.8194C183.096 64.489 182.5 62.5266 181.765 59.9323C181.063 57.2498 180.619 55.2187 180.433 53.8391C182.696 53.1805 186.05 52.1015 190.494 50.6021C194.998 49.0752 198.344 47.8168 200.53 46.827C201.805 46.2497 202.523 45.8149 202.684 45.5227C202.938 45.1148 203.033 44.5964 202.968 43.9673C202.936 43.25 202.823 42.6787 202.631 42.2536C202.081 41.0389 201.092 40.3891 199.663 40.3042C198.206 40.1585 195.875 40.2625 192.669 40.6162C188.861 41.0959 185.617 41.284 182.936 41.1806C180.254 41.0771 177.571 40.2427 174.887 38.6771C172.202 37.1116 170.008 34.4461 168.303 30.6806C167.093 28.0083 166.518 25.1219 166.578 22.0212C166.611 18.8598 167.058 16.5349 167.921 15.0465C168.591 13.9386 170.306 12.3936 173.068 10.4115C175.83 8.42953 178.547 6.83366 181.219 5.62395C188.021 2.54466 193.867 0.666696 198.756 -0.00994873C199.246 1.23221 199.789 2.99861 200.387 5.28924C201.046 7.55237 201.591 9.64706 202.024 11.5733L199.888 12.4307C191.745 15.4583 186.58 17.467 184.394 18.4567C183.483 18.8691 182.98 19.1332 182.886 19.2489C182.698 19.4804 182.61 19.8499 182.62 20.3575C182.63 20.8651 182.759 21.3922 183.006 21.9388Z" fill="white"/>
<path d="M4.92261 49.8428L13.7775 45.8342L26.4201 57.1033L25.2835 40.6255L27.3879 39.6729L28.8333 62.0701L22.0554 65.1384L4.92261 49.8428Z" fill="white"/>
<path d="M28.4202 39.2055L37.3298 35.1722L45.9903 54.3032L37.0807 58.3365L28.4202 39.2055Z" fill="white"/>
<path d="M45.4507 31.4959L53.4311 27.8833L70.5639 43.1789L60.2331 47.8556L54.4931 42.8141L48.4805 45.536L48.8911 52.99L46.8961 53.8932L45.4507 31.4959ZM52.9732 41.4934L47.9746 37.0713L48.3271 43.5967L52.9732 41.4934Z" fill="white"/>
<path d="M115.683 118.325C118.115 117.926 120.087 117.967 121.599 118.446C123.103 118.907 124.201 119.902 124.894 121.433C125.447 122.653 125.559 123.92 125.231 125.232C124.903 126.544 124.115 127.812 122.869 129.034C121.641 130.249 119.97 131.335 117.856 132.292C115.36 133.422 113.011 134.101 110.809 134.329C108.617 134.531 106.774 134.411 105.278 133.968L105.623 132.33C106.909 132.648 108.391 132.746 110.069 132.622C111.748 132.499 113.416 132.062 115.074 131.312C116.149 130.825 116.89 130.303 117.296 129.746C117.721 129.18 117.805 128.615 117.55 128.051C117.104 127.067 115.783 126.743 113.586 127.079L109.563 127.648C107.368 127.94 105.507 127.805 103.98 127.245C102.471 126.677 101.395 125.682 100.752 124.261C100.216 123.076 100.103 121.832 100.412 120.529C100.722 119.225 101.464 117.978 102.638 116.788C103.822 115.571 105.415 114.51 107.42 113.602C109.333 112.736 111.19 112.159 112.991 111.87C114.811 111.574 116.371 111.504 117.672 111.662L117.339 113.327C116.26 113.223 115.041 113.27 113.682 113.468C112.341 113.658 111.014 114.05 109.702 114.644C108.554 115.163 107.753 115.746 107.299 116.39C106.854 117.009 106.772 117.628 107.053 118.247C107.267 118.721 107.684 119.037 108.305 119.195C108.917 119.335 109.939 119.289 111.371 119.058L115.683 118.325Z" fill="white"/>
<path d="M124.94 113.574L130.706 126.31L129.093 127.04L120.433 107.909L128.413 104.296L136.016 110.47L135.574 101.055L144.319 97.0958L152.98 116.227L144.234 120.186L137.739 105.838L138.659 122.71L136.281 123.786L124.94 113.574Z" fill="white"/>
<path d="M152.436 93.4213L160.416 89.8087L177.549 105.104L167.218 109.781L161.478 104.74L155.466 107.461L155.876 114.915L153.881 115.819L152.436 93.4213ZM159.958 103.419L154.96 98.9967L155.312 105.522L159.958 103.419ZM155.981 90.6311C154.796 91.1673 153.747 91.4445 152.834 91.463C151.938 91.4732 151.288 91.0319 150.884 90.1391C150.175 88.5722 151.169 87.1784 153.865 85.9577C156.543 84.7452 158.237 84.9225 158.947 86.4894C159.351 87.3822 159.244 88.1657 158.628 88.8401C158.029 89.5062 157.147 90.1032 155.981 90.6311ZM155.424 89.4013C155.697 89.2776 155.825 89.099 155.807 88.8656C155.808 88.6239 155.734 88.3391 155.585 88.0111C155.428 87.665 155.259 87.4123 155.077 87.2531C154.914 87.0857 154.695 87.0638 154.422 87.1875C154.13 87.3195 153.984 87.5063 153.984 87.748C154.002 87.9814 154.089 88.2712 154.246 88.6174C154.394 88.9453 154.55 89.193 154.714 89.3605C154.896 89.5196 155.133 89.5332 155.424 89.4013Z" fill="white"/>
<path d="M169.968 85.4845L184.344 78.9768C186.949 77.7973 189.62 77.7079 192.356 78.7085C195.083 79.7356 197.04 81.561 198.227 84.1847C199.432 86.8448 199.52 89.538 198.493 92.2642C197.458 94.9722 195.628 96.9201 193.004 98.1078L178.629 104.616L169.968 85.4845ZM189.117 97.9578C190.155 97.4877 190.75 96.8124 190.9 95.9321C191.04 95.0782 190.893 94.0253 190.458 92.7733C190.194 91.9486 189.605 90.525 188.689 88.5026C187.98 86.9357 187.249 85.4664 186.496 84.0947C185.9 83.0692 185.256 82.373 184.563 82.0062C183.802 81.5382 182.912 81.5352 181.891 81.9971L180.251 82.7394L187.477 98.7001L189.117 97.9578Z" fill="white"/>
<path d="M202.469 83.2525L191.849 75.5792L202.563 70.7293L210.037 76.7641L210.324 67.2156L212.429 66.263L212.034 78.9223L216.006 87.6952L206.44 92.0255L202.469 83.2525Z" fill="white"/>
<path d="M213.606 65.7302L231.889 57.4532C232.782 57.0491 233.705 56.9057 234.658 57.023C235.622 57.1139 236.495 57.4429 237.279 58.0102C238.073 58.551 238.671 59.2678 239.076 60.1606C239.612 61.3449 239.734 62.5849 239.442 63.8804C239.151 65.176 238.511 66.212 237.523 66.9885C238.631 66.8164 239.668 66.9727 240.634 67.4575C241.618 67.9341 242.328 68.6552 242.765 69.6209L245.005 74.5676L235.849 78.7123L233.164 72.7816C232.901 72.1986 232.585 71.7926 232.218 71.5636C231.79 71.2965 231.37 71.146 230.96 71.1123C230.505 71.0768 230.029 71.1167 229.532 71.2318C229.017 71.3551 228.546 71.5025 228.119 71.674L227.368 71.9807L231.34 80.7537L222.266 84.8612L213.606 65.7302ZM227.607 69.9626C228.263 69.6656 228.794 69.2386 229.201 68.6814C229.617 68.0977 229.856 67.4625 229.919 66.7757C229.991 66.0624 229.883 65.3869 229.594 64.7492C229.297 64.0933 228.861 63.5663 228.286 63.1681C227.72 62.7435 227.081 62.4951 226.368 62.4228C225.672 62.3423 224.997 62.4505 224.341 62.7474L223.384 63.1805L226.663 70.4229L227.607 69.9626Z" fill="white"/>
</g>
<defs>
<filter id="filter0_d_31_38" x="0.922607" y="-0.00994873" width="248.082" height="142.434" filterUnits="userSpaceOnUse" color-interpolation-filters="sRGB">
<feFlood flood-opacity="0" result="BackgroundImageFix"/>
<feColorMatrix in="SourceAlpha" type="matrix" values="0 0 0 0 0 0 0 0 0 0 0 0 0 0 0 0 0 0 127 0" result="hardAlpha"/>
<feOffset dy="4"/>
<feGaussianBlur stdDeviation="2"/>
<feComposite in2="hardAlpha" operator="out"/>
<feColorMatrix type="matrix" values="0 0 0 0 0 0 0 0 0 0 0 0 0 0 0 0 0 0 0.25 0"/>
<feBlend mode="normal" in2="BackgroundImageFix" result="effect1_dropShadow_31_38"/>
<feBlend mode="normal" in="SourceGraphic" in2="effect1_dropShadow_31_38" result="shape"/>
</filter>
</defs>
</svg>
